<?xml version="1.0" encoding="utf-8"?>
<!-- Generator: Adobe Illustrator 22.0.0, SVG Export Plug-In . SVG Version: 6.00 Build 0)  -->
<svg version="1.1" id="图层_1" xmlns="http://www.w3.org/2000/svg" xmlns:xlink="http://www.w3.org/1999/xlink" x="0px" y="0px"
	 viewBox="0 0 276.2 200" style="enable-background:new 0 0 276.2 200;" xml:space="preserve">
<path d="M7.8,46.9L131.1,169c0.2,0.2,0.4,0.2,0.6,0.4c0,0,0.1,0.1,0.1,0.2c4.4,4.3,11.5,4.3,15.8-0.1L269.8,46.2
	c4.3-4.4,4.3-11.4-0.1-15.8c-2.2-2.1-5-3.2-7.9-3.2c-2.9,0-5.8,1.1-7.9,3.3L139.5,145.9L23.6,31c-2.2-2.1-5-3.2-7.9-3.2
	c-2.9,0-5.8,1.1-7.9,3.3C3.4,35.4,3.5,42.5,7.8,46.9L7.8,46.9z"/>
</svg>
