<?xml version="1.0" standalone="no"?><!DOCTYPE svg PUBLIC "-//W3C//DTD SVG 1.1//EN" "http://www.w3.org/Graphics/SVG/1.1/DTD/svg11.dtd"><svg t="1564819814658" class="icon" viewBox="0 0 1024 1024" version="1.1" xmlns="http://www.w3.org/2000/svg" p-id="3189" data-spm-anchor-id="a313x.7781069.0.i4" xmlns:xlink="http://www.w3.org/1999/xlink" width="32" height="32"><defs><style type="text/css"></style></defs><path d="M821.264 65.29H202.743c-56.838 0-103.088 46.25-103.088 103.088V855.62c0 56.832 46.25 103.088 103.088 103.088h618.52c56.83 0 103.081-46.256 103.081-103.088V168.378c0-56.837-46.25-103.088-103.08-103.088z m34.357 790.331c0 18.965-15.395 34.359-34.358 34.359h-618.52c-18.935 0-34.365-15.394-34.365-34.359V168.378c0-18.934 15.43-34.365 34.365-34.365h618.52c18.963 0 34.358 15.43 34.358 34.365V855.62z" p-id="3190" fill="#ffffff" data-spm-anchor-id="a313x.7781069.0.i3" class=""></path><path d="M236.867 512.927c0 18.965 15.393 34.36 34.358 34.36h379.293c19 0 34.358-15.395 34.358-34.36 0-18.97-15.356-34.364-34.358-34.364H271.224c-18.965 0-34.357 15.394-34.357 34.364z m514.467 170.364H271.089c-18.97 0-34.365 15.363-34.365 34.365 0 19 15.395 34.364 34.365 34.364h480.245c19 0 34.364-15.362 34.364-34.364 0-19.003-15.363-34.365-34.364-34.365zM236.793 290.088a51.544 51.544 0 1 0 103.088 0 51.544 51.544 0 1 0-103.088 0zM459.495 290.088a51.544 51.544 0 1 0 103.088 0 51.544 51.544 0 1 0-103.088 0zM682.986 290.088a51.544 51.544 0 1 0 103.088 0 51.544 51.544 0 1 0-103.088 0z" p-id="3191" fill="#1296db" data-spm-anchor-id="a313x.7781069.0.i2" class=""></path></svg>