<?xml version="1.0" encoding="utf-8"?>
<!-- Generator: Adobe Illustrator 22.1.0, SVG Export Plug-In . SVG Version: 6.00 Build 0)  -->
<svg version="1.1" id="图层_1" xmlns="http://www.w3.org/2000/svg" xmlns:xlink="http://www.w3.org/1999/xlink" x="0px" y="0px"
	 viewBox="0 0 44 44" style="enable-background:new 0 0 44 44;" xml:space="preserve">
<style type="text/css">
	.st0{fill:#FFFFFF;}
</style>
<title>bs</title>
<path class="st0" d="M22.8,21.8v-5.5h8.1v-1.4h-8.1v-3.6h6.7V9.9h-6.7V3.3h-1.5v6.6h-6.8v1.4h6.8v3.6h-8.1v1.4h8.1v5.5L22.8,21.8z
	 M28.9,4.8l-1.3-0.6c-0.7,1.5-1.5,2.9-2.5,4.3l1.3,0.7C27.3,7.7,28.2,6.3,28.9,4.8L28.9,4.8z M19.1,8.4c-0.8-1.5-1.8-2.9-2.8-4.3
	l-1.3,0.6c1,1.3,2,2.8,2.8,4.2L19.1,8.4z M19.4,40.4h1.3V22.6h-1.3L19.4,40.4z M31.1,24.5v-1.4h-9.5v1.4h3.9
	c-0.1,0.8-0.2,1.5-0.3,2.2h-3v9.5h1.4v-8.1h5.3v8.1h1.4v-9.5h-3.7c0.1-0.7,0.2-1.5,0.3-2.2H31.1z M26.9,29.3h-1.4v3.5
	c0,1.4-0.3,2.9-0.9,4.2c-0.8,1.1-1.9,2-3.2,2.5l0.8,1.3c1.4-0.5,2.7-1.5,3.5-2.8c0.8-1.6,1.2-3.3,1.2-5.1L26.9,29.3z M27.8,36.3
	l-1,0.9c1.2,1,2.3,2.1,3.2,3.4l1-1C30.1,38.4,29,37.3,27.8,36.3L27.8,36.3z M16.6,38.5h1.3V23.9h-1.3V38.5z M13.8,32.5
	c0.1,2.4-0.2,4.9-0.9,7.2l1.1,1c0.7-1.7,1-4.5,1.1-8.2v-9.8h-1.4V32.5z"/>
</svg>
