<?xml version="1.0" encoding="utf-8"?>
<!-- Generator: Adobe Illustrator 22.1.0, SVG Export Plug-In . SVG Version: 6.00 Build 0)  -->
<svg version="1.1" id="图层_1" xmlns="http://www.w3.org/2000/svg" xmlns:xlink="http://www.w3.org/1999/xlink" x="0px" y="0px"
	 viewBox="0 0 44 44" style="enable-background:new 0 0 44 44;" xml:space="preserve">
<style type="text/css">
	.st0{fill:#FFFFFF;}
</style>
<title>bz</title>
<path class="st0" d="M21.4,12.1c1.1-1.3,1.9-2.8,2.6-4.4h5.2c0,6.1-0.1,9.8-0.3,11c0,0.9-0.7,1.6-1.6,1.6c0,0-0.1,0-0.1,0
	c-0.7,0-1.6,0-2.6-0.1l0.4,1.4c1.2,0,2,0.1,2.5,0.1c1.4,0.2,2.7-0.9,2.8-2.3c0-0.1,0-0.1,0-0.2c0.2-1.6,0.3-5.9,0.3-12.8h-6.2
	c0.3-0.9,0.5-1.9,0.7-2.9l-1.4-0.2c-0.5,2.8-1.6,5.4-3.3,7.6L21.4,12.1z M20.5,4.6l-0.8-1.1c-2,1.2-4.2,2.1-6.6,2.5l0.7,1.3
	C16.2,6.8,18.4,5.9,20.5,4.6z M24,11.3L22.9,12c1,1.5,2,3.1,2.8,4.7l1.2-0.9C26.1,14.2,25.1,12.7,24,11.3z M13.9,19.6
	c2.1-0.9,4.1-2.1,5.7-3.8c0.1,0.6,0.1,1.2,0.1,1.7c0.1,0.8-0.1,1.6-0.6,2.3c-0.8,0.4-1.6,0.5-2.5,0.5H16l0.5,1.3h0.5
	c1.9,0,3.1-0.3,3.6-1c0.5-0.9,0.8-2,0.7-3.1c0-2.7-0.9-5.3-2.6-7.4c1.1-0.8,2-1.7,2.8-2.8l-1.1-0.8c-0.4,0.6-0.9,1.1-1.5,1.6
	c-0.3-0.4-0.7-0.9-1.1-1.5l-1,0.7c0.4,0.6,0.8,1.1,1.2,1.6c-0.4,0.3-0.9,0.6-1.4,0.9c-0.5-0.7-1-1.4-1.5-2l-1.1,0.7
	c0.6,0.7,1,1.3,1.5,1.9c-0.6,0.3-1.2,0.5-1.9,0.7l0.5,1.2c1.2-0.4,2.4-0.9,3.5-1.6c0.2,0.3,0.5,0.7,0.7,1c-1.4,1.4-3.1,2.4-5,3
	l0.7,1.2c1.8-0.7,3.5-1.7,4.8-3.1c0.2,0.5,0.4,1,0.5,1.5c-1.7,1.8-3.8,3.1-6.1,3.9L13.9,19.6z M23.4,31.1V29
	c1.9-1.3,3.7-2.7,5.4-4.3v-1.4H15.6v1.4h11.2c-1.5,1.3-3.2,2.5-4.9,3.5v2.8h-8.4v1.4h8.4v5.9c0.1,0.5-0.3,0.9-0.7,0.9
	c-0.1,0-0.2,0-0.3,0c-1.2,0-2.2,0-3.2-0.1l0.4,1.4h3.4c0.9,0.1,1.7-0.5,1.8-1.3c0-0.1,0-0.3,0-0.5v-6.4H31v-1.4L23.4,31.1z"/>
</svg>
