<?xml version="1.0" encoding="utf-8"?>
<!-- Generator: Adobe Illustrator 22.1.0, SVG Export Plug-In . SVG Version: 6.00 Build 0)  -->
<svg version="1.1" id="图层_1" xmlns="http://www.w3.org/2000/svg" xmlns:xlink="http://www.w3.org/1999/xlink" x="0px" y="0px"
	 viewBox="0 0 44 44" style="enable-background:new 0 0 44 44;" xml:space="preserve">
<style type="text/css">
	.st0{fill:#FFFFFF;}
</style>
<title>dd</title>
<path class="st0" d="M12.6,20.2l0.9,1.2c4.2-2.1,7.2-6,8.3-10.6c1.4,4.4,4.3,8.1,8.3,10.5l0.9-1.2c-4-2.3-6.9-6-8.3-10.4h7.9V8.3
	h-8.3c0.2-1.3,0.3-2.6,0.3-3.9V3.1H21v1.6c0,1.2-0.1,2.4-0.3,3.6H13v1.4h7.5C19.8,14.3,16.8,18.2,12.6,20.2z M22.5,33.4h6.3v-8.2
	h-3.8c0.6-0.9,1.2-1.8,1.6-2.8l-1.4-0.5c-0.5,1.1-1.1,2.2-1.7,3.3h-8.6v8.2h6.3v1.9h-8.2v1.4h8.2v3.8h1.5v-3.8h8.2v-1.4h-8.2V33.4z
	 M22.5,26.4h4.9v2.2h-4.9V26.4z M22.5,29.8h4.9V32h-4.9V29.8z M21.1,32h-4.9v-2.2h4.9L21.1,32z M21.1,28.6h-4.9v-2.2h4.9L21.1,28.6z
	 M19.1,25.1l1.2-0.6c-0.6-0.9-1.2-1.7-1.9-2.5l-1.2,0.6C17.8,23.4,18.4,24.2,19.1,25.1L19.1,25.1z"/>
</svg>
