<?xml version="1.0" encoding="utf-8"?>
<!-- Generator: Adobe Illustrator 22.1.0, SVG Export Plug-In . SVG Version: 6.00 Build 0)  -->
<svg version="1.1" id="图层_1" xmlns="http://www.w3.org/2000/svg" xmlns:xlink="http://www.w3.org/1999/xlink" x="0px" y="0px"
	 viewBox="0 0 44 44" style="enable-background:new 0 0 44 44;" xml:space="preserve">
<style type="text/css">
	.st0{fill:#FFFFFF;}
</style>
<title>ds</title>
<path class="st0" d="M12.8,20.6l0.9,1.2c4.2-2.1,7.2-6,8.3-10.6c1.4,4.4,4.3,8.1,8.3,10.5l0.9-1.2c-4-2.3-6.9-6-8.3-10.4h7.9V8.7
	h-8.3c0.2-1.3,0.3-2.6,0.3-3.9V3.4h-1.5V5c0,1.2-0.1,2.4-0.3,3.7h-7.8v1.4h7.5C20,14.7,17,18.6,12.8,20.6z M30.1,24.9v-1.3h-8.2V25
	h0.7c0.2,3.2,1.1,6.2,2.6,9c-1.4,2-3,3.8-4.8,5.4l1,1.2c1.7-1.6,3.3-3.3,4.6-5.2c1.2,1.9,2.6,3.6,4.2,5.2l1-1.2
	c-1.7-1.6-3.1-3.4-4.3-5.4C28.6,31.2,29.7,28.1,30.1,24.9z M23.9,25h4.9c-0.4,2.7-1.4,5.3-2.7,7.7C24.8,30.3,24,27.7,23.9,25
	L23.9,25z M21.6,36.4c-0.8-1.3-1.6-2.6-2.5-3.9c0.9-2.5,1.5-5.2,1.6-7.9v-1.1h-7.2V25h5.8c-0.1,2.1-0.6,4.2-1.2,6.2
	c-1.1-1.5-2.2-2.9-3.5-4.4l-1,1c1.4,1.7,2.7,3.4,3.9,5c-1.1,2.4-2.6,4.5-4.6,6.2l1,1.1c1.9-1.7,3.4-3.7,4.5-5.9
	c0.8,1.2,1.5,2.3,2.1,3.4L21.6,36.4z"/>
</svg>
