<?xml version="1.0" encoding="utf-8"?>
<!-- Generator: Adobe Illustrator 22.1.0, SVG Export Plug-In . SVG Version: 6.00 Build 0)  -->
<svg version="1.1" id="图层_1" xmlns="http://www.w3.org/2000/svg" xmlns:xlink="http://www.w3.org/1999/xlink" x="0px" y="0px"
	 viewBox="0 0 44 44" style="enable-background:new 0 0 44 44;" xml:space="preserve">
<style type="text/css">
	.st0{fill:#FFFFFF;}
</style>
<title>dz</title>
<path class="st0" d="M25.8,15.4c-0.9-1.6-1.9-3-3.1-4.4l-1.1,0.8c1.1,1.4,2.2,2.8,3.1,4.4L25.8,15.4z M12.9,19.2l0.8,1.3
	c1.8-1.4,3.3-3.2,4.4-5.2c0.7,1,1.4,2,2,3l1-1c-0.7-1.1-1.5-2.3-2.3-3.4c1.1-2.3,1.6-4.9,1.7-7.4V5.4h-6.8v1.4h5.5
	c-0.1,2-0.5,4-1.3,5.9c-1.1-1.4-2.2-2.7-3.5-4.1l-1,0.9c1.4,1.6,2.7,3.1,3.8,4.6C16.2,16.1,14.7,17.8,12.9,19.2z M28.9,7.3V3.4h-1.4
	v3.9h-5.8v1.4h5.8v10.6c0,0.7-0.4,1.1-1.1,1.1c-0.9,0-1.9,0-2.9-0.1l0.3,1.4h3.1c1,0.1,1.9-0.5,2.1-1.5c0-0.2,0-0.3,0-0.5v-11h2.2
	V7.3H28.9z M23.2,28.9c1.9-1.3,3.7-2.7,5.4-4.3v-1.4H15.4v1.4h11.2c-1.5,1.3-3.2,2.5-4.9,3.5V31h-8.4v1.4h8.4v5.9
	c0.1,0.5-0.3,0.9-0.7,0.9c-0.1,0-0.2,0-0.3,0c-1.2,0-2.2,0-3.2-0.1l0.4,1.4h3.4c0.9,0.1,1.7-0.5,1.8-1.3c0-0.1,0-0.3,0-0.5v-6.4h7.6
	V31h-7.6L23.2,28.9z"/>
</svg>
