<?xml version="1.0" encoding="utf-8"?>
<!-- Generator: Adobe Illustrator 21.0.0, SVG Export Plug-In . SVG Version: 6.00 Build 0)  -->
<svg version="1.1" id="图层_1" xmlns="http://www.w3.org/2000/svg" xmlns:xlink="http://www.w3.org/1999/xlink" x="0px" y="0px"
	 viewBox="0 0 200 200" style="enable-background:new 0 0 200 200;" xml:space="preserve">
<path d="M8.4,29.1h182.8c4.9,0,8.8,4,8.8,8.8s-4,8.8-8.8,8.8H8.8C4,46.8,0,42.8,0,38S3.5,29.1,8.4,29.1z M99.8,92.3h91.4
	c4.9,0,8.8,4,8.8,8.8c0,4.9-4,8.8-8.8,8.8H99.8c-4.9,0-8.8-4-8.8-8.8C90.9,96.2,94.9,92.3,99.8,92.3z M8.4,155.4h182.8
	c4.9,0,8.8,4,8.8,8.8c0,4.9-4,8.8-8.8,8.8H8.8c-4.9,0-8.8-4-8.8-8.8C0,159.4,3.5,155.4,8.4,155.4z"/>
</svg>
