<?xml version="1.0" encoding="utf-8"?>
<!-- Generator: Adobe Illustrator 22.1.0, SVG Export Plug-In . SVG Version: 6.00 Build 0)  -->
<svg version="1.1" id="图层_1" xmlns="http://www.w3.org/2000/svg" xmlns:xlink="http://www.w3.org/1999/xlink" x="0px" y="0px"
	 viewBox="0 0 100 100" style="enable-background:new 0 0 100 100;" xml:space="preserve">
<style type="text/css">
	.st0{fill:none;}
</style>
<title>wtz</title>
<rect x="-572.9" y="-360.4" class="st0" width="1245.8" height="820.7"/>
<g>
	<path d="M36.8,22.6c0,0.4,0.2,0.8,0.6,1c0.4,0.2,0.8,0.2,1.3,0c0.4-0.2,0.6-0.6,0.6-1c0-0.7-0.6-1.3-1.3-1.3
		C37.4,21.4,36.8,22,36.8,22.6z M85.7,20.8c-1,0-1.7,0.8-1.7,1.8c0,1,0.7,1.8,1.7,1.8s1.7-0.8,1.7-1.8
		C87.5,21.6,86.7,20.8,85.7,20.8z M90.3,37.2c0,0-0.9,3-2.6,3.4c0,0,2.2,0.9,2.6,3.1c0,0,0.3-3.2,2.9-3.3
		C93.3,40.4,90.5,39,90.3,37.2z M38.8,14c0,0,0.3-2.5,2.2-2.5c0,0.1-2.2-1.1-2.2-2.5c0,0-0.7,2.3-2.1,2.6
		C36.8,11.6,38.5,12.3,38.8,14z M93.1,32.3c0,0-0.3,1.1-1,1.3c0,0,0.8,0.3,1,1.2c0,0,0.2-1.2,1-1.2C94.2,33.5,93.2,33,93.1,32.3z
		 M55.5,39.8c0.8-0.4,1.6-1,2.4-1.7c0.1-0.1,0.2-0.2,0.2-0.3c-0.1-0.2-0.2-0.2-0.2-0.3c-0.1,0-0.2,0.1-0.3,0.1
		c-0.7,0.7-1.5,1.2-2.3,1.6c-0.2,0.1-0.2,0.3-0.2,0.4C55.2,39.8,55.3,39.8,55.5,39.8z M45.4,36.1c0.2-0.1,0.3-0.2,0.3-0.4
		c-0.1-0.3-0.1-0.5-0.1-0.8l0.3-1c0.2-0.3,0.3-0.5,0.5-0.8c0.2-0.2,0.2-0.3,0-0.5c-0.2-0.2-0.3-0.2-0.5,0c-0.8,0.9-1.2,2-1,3.2
		C45.1,36,45.3,36.2,45.4,36.1z M59.2,36.8c0.6-0.6,1.2-1.3,1.7-2.1c0.1-0.1,0.1-0.2,0.1-0.2c-0.1-0.2-0.1-0.2-0.2-0.2
		c-0.1-0.1-0.2-0.1-0.2-0.1c-0.1,0.1-0.2,0.1-0.2,0.2c-0.6,0.8-1.1,1.4-1.7,2.1c-0.2,0.2-0.2,0.3,0.1,0.5
		C58.9,36.9,59.1,36.9,59.2,36.8L59.2,36.8z M47.5,32.3c0.1,0,0.1,0,0.2-0.1c0.8-0.4,1.9-0.5,2.8-0.3c0.2,0.1,0.4-0.1,0.4-0.2
		c0.1-0.2-0.1-0.4-0.2-0.4c-1-0.3-2.2-0.2-3.2,0.3c-0.2,0.1-0.2,0.2-0.2,0.4C47.2,32.1,47.4,32.3,47.5,32.3z M52.9,35.7
		c0,0.2,0.1,0.2,0.2,0.3c0.2,0.1,0.2,0.1,0.3-0.1c0.1-0.1,0.2-0.2,0.2-0.3c-0.2-1.5-0.7-2.6-1.6-3.4c-0.2-0.2-0.4-0.1-0.5,0.1
		c-0.2,0.2-0.2,0.3,0.1,0.5C52.3,33.3,52.8,34.3,52.9,35.7z M48.7,39.5c-0.1,0.2-0.1,0.4,0.2,0.4c0.8,0.4,1.4,0.6,2.2,0.7H51
		c0.2,0,0.3-0.2,0.3-0.3c0.1-0.2-0.2-0.3-0.3-0.4c-0.7-0.1-1.3-0.3-1.9-0.6C49,39.3,48.8,39.4,48.7,39.5z M53.6,37.3
		c-0.1-0.1-0.2-0.2-0.2-0.2c-0.2-0.1-0.4,0.2-0.4,0.3c-0.1,0.9-0.3,1.7-0.5,2.5c-0.2,0-0.3,0.1-0.4,0.1c-0.2,0-0.3,0.2-0.3,0.3
		c0,0.2,0.2,0.3,0.3,0.3h0.2c-0.2,0.3-0.3,0.6-0.4,1c-0.1,0.2-0.1,0.4,0.2,0.4c0.2,0.1,0.4,0.1,0.4-0.2c0.2-0.4,0.4-0.8,0.6-1.3
		c0.3-0.1,0.6-0.1,0.8-0.2c0.2-0.1,0.3-0.2,0.2-0.4c-0.1-0.2-0.2-0.3-0.4-0.2S53.4,40,53.3,40c0.2-0.8,0.4-1.6,0.5-2.4
		C53.7,37.4,53.6,37.4,53.6,37.3L53.6,37.3z M45.8,36.8c-0.2,0.1-0.2,0.3-0.1,0.5c0.4,0.5,0.8,1,1.4,1.5l0.6,0.5
		c0.2,0.2,0.4,0.1,0.5-0.1c0.2-0.2,0.1-0.4-0.1-0.5c-0.2-0.2-0.4-0.3-0.6-0.5c-0.5-0.4-1-0.9-1.3-1.4C46.2,36.8,46,36.8,45.8,36.8z
		 M64.2,28.8c0.2,0.1,0.4,0.1,0.4-0.2c0.8-1.5,1.2-2.5,1.2-2.5c0.1-0.2,0.1-0.4-0.2-0.4c-0.1-0.1-0.2-0.1-0.3,0
		c-0.1,0.1-0.2,0.1-0.2,0.2c0,0-0.4,1-1.2,2.5C64,28.5,64.1,28.7,64.2,28.8L64.2,28.8z M61.7,33.3c0.2,0,0.2-0.1,0.3-0.2
		c0.6-0.9,1.2-1.9,1.7-2.8c0.1-0.1,0.1-0.2,0.1-0.3c-0.1-0.1-0.1-0.2-0.2-0.2c-0.1-0.1-0.2-0.1-0.3-0.1c-0.1,0.1-0.2,0.1-0.2,0.2
		c-0.5,1-1,1.9-1.6,2.8c-0.1,0.1-0.1,0.2-0.1,0.3C61.5,33.3,61.7,33.3,61.7,33.3z M67.5,26.2l-0.4,4.3l2.4-3.1L67.5,26.2z
		 M59.7,21.7l5.6,2.5l9.1-7.3l-7,7.6l7,2.3l3.9-14.1L59.7,21.7z M46.4,48.3c0.8-0.5,1.4-1,2.1-1.5l0.1-0.1c0.1-0.1,0.1-0.2,0-0.3
		c0-0.1-0.1-0.2-0.2-0.2c-0.1-0.1-0.2-0.1-0.3,0c0,0,0,0.1-0.1,0.1c-0.7,0.5-1.3,1-2,1.5c-0.1,0-0.1,0.1-0.1,0.1
		c-0.1,0.2,0.1,0.4,0.3,0.4C46.3,48.3,46.4,48.3,46.4,48.3z M49.8,45.5c0.6-0.7,1.2-1.3,1.7-1.9c0,0,0-0.1,0-0.1c0-0.1,0-0.2,0-0.3
		c-0.1-0.1-0.1-0.1-0.2-0.2c-0.1,0-0.2,0-0.3,0.1c0,0,0,0.1,0,0.1c-0.5,0.6-1.1,1.3-1.7,1.9c0,0-0.1,0.1-0.1,0.2
		c0,0.2,0.1,0.4,0.3,0.3C49.7,45.6,49.7,45.5,49.8,45.5z M45.2,48.9l-0.1-0.3c-0.1-0.2-0.3-0.2-0.5-0.1c-0.8,0.5-1.5,0.8-1.9,0.9
		c-0.2,0.1-0.2,0.3-0.2,0.4c0.1,0.2,0.3,0.3,0.4,0.2C43.4,49.8,44.2,49.5,45.2,48.9z M24.4,27.8c0,0-0.7,2.3-2.1,2.6
		c0,0,1.7,0.7,2.1,2.4c0,0,0.3-2.5,2.2-2.5C26.7,30.3,24.5,29.2,24.4,27.8z M78.8,51.1c0,0-0.3,1.1-1,1.3c0,0,0.8,0.3,1,1.2
		c0,0,0.2-1.2,1-1.2C79.9,52.3,78.8,51.7,78.8,51.1z"/>
	<path d="M78.8,52.9c-0.2-0.3-0.4-0.5-0.6-0.6c0.3-0.2,0.4-0.5,0.6-0.7c0.2,0.3,0.4,0.5,0.6,0.6C79.1,52.4,78.9,52.7,78.8,52.9z
		 M42.9,49.8c-0.1,0-0.1,0-0.1-0.1c0-0.1,0-0.2,0.1-0.2c0.2-0.1,0.9-0.4,1.9-0.9c0,0,0,0,0.1,0c0.1,0,0.1,0,0.2,0.1l0.1,0.1
		C43.8,49.5,43.1,49.8,42.9,49.8L42.9,49.8z M46.2,48.1C46.2,48.1,46.1,48.1,46.2,48.1c-0.1-0.1-0.1-0.1-0.1-0.2
		c0.8-0.5,1.4-1,2.1-1.5c0,0,0.1-0.1,0.1-0.1c0.1,0.1,0.1,0.1,0.1,0.2c0,0,0,0.1,0,0.1l-0.1,0.1c-0.6,0.4-1.2,0.9-1.8,1.3l-0.2,0.2
		L46.2,48.1L46.2,48.1z M49.5,45.4c0,0-0.1,0-0.1,0c0,0,0-0.1,0-0.2c0.6-0.6,1.1-1.2,1.7-1.9c0-0.1,0.1-0.1,0.1-0.2
		c0.1,0,0.1,0.1,0.2,0.1c0,0.1,0,0.1,0,0.1c-0.4,0.6-0.9,1-1.3,1.5l-0.4,0.4C49.7,45.4,49.6,45.4,49.5,45.4L49.5,45.4z M90.3,43.1
		c-0.5-1.3-1.6-2-2.1-2.4c1.1-0.5,1.8-2,2.1-2.8c0.4,1.2,1.8,2.1,2.4,2.5C91.2,40.7,90.6,42.1,90.3,43.1z M52.1,41.9
		c0,0-0.1,0-0.1,0l-0.1-0.1c0,0,0-0.1,0-0.2c0.2-0.4,0.3-0.7,0.4-1c0-0.1,0-0.1,0-0.2c0-0.1-0.1-0.1-0.2-0.1h-0.2
		c0,0-0.1-0.1-0.1-0.1c0,0,0.1-0.1,0.1-0.1c0.1,0,0.1,0,0.2,0c0.1,0,0.1,0,0.2,0c0.1,0,0.2-0.1,0.2-0.1c0.2-0.8,0.5-1.7,0.5-2.6
		c0-0.1,0.1-0.1,0.1-0.1c0,0,0.1,0,0.1,0.1c0,0.1,0.1,0.2,0.2,0.3c-0.1,0.8-0.3,1.5-0.5,2.3c0,0.1,0,0.1,0,0.2c0,0,0.1,0.1,0.1,0.1
		c0.1,0,0.3,0,0.5-0.1c0,0,0,0,0,0c0,0,0.1,0,0.1,0.1c0,0-0.1,0.1-0.1,0.1c-0.1,0-0.2,0-0.4,0.1c-0.1,0-0.3,0-0.4,0.1
		c-0.1,0-0.1,0-0.1,0.1c-0.1,0.2-0.2,0.4-0.3,0.6c-0.1,0.2-0.2,0.5-0.3,0.7C52.2,41.9,52.2,41.9,52.1,41.9z M51,40.6
		c-0.7-0.1-1.4-0.4-2.1-0.7l-0.1-0.1c0,0,0-0.1,0-0.2c0.1-0.1,0.1-0.1,0.1-0.1c0,0,0.1,0.1,0.1,0.1c0.7,0.3,1.3,0.5,2,0.6
		c0.1,0.1,0.1,0.1,0.1,0.1C51.2,40.5,51.1,40.6,51,40.6L51,40.6z M55.3,39.6c0,0-0.1,0-0.2-0.1c0,0,0-0.1,0.1-0.2
		c0.8-0.5,1.6-1,2.3-1.6c0,0,0.1,0,0.2,0c0,0,0.1,0.1,0.1,0.2c0,0,0,0,0,0c0,0-0.1,0.1-0.1,0.1C57.1,38.5,56.2,39.2,55.3,39.6
		L55.3,39.6z M48,39.3C47.9,39.3,47.9,39.3,48,39.3l-0.7-0.6c-0.7-0.5-1.1-1.1-1.4-1.5c0-0.1,0-0.2,0-0.3c0,0,0.1,0,0.2,0
		c0,0,0.1,0,0.1,0c0.3,0.6,0.8,1,1.3,1.4c0.2,0.2,0.4,0.4,0.6,0.5c0,0,0.1,0.2,0,0.2C48.1,39.2,48,39.3,48,39.3L48,39.3z M58.8,36.7
		c-0.1-0.1-0.1-0.2,0-0.2c0.5-0.6,0.9-1.1,1.4-1.7l0.3-0.4c0.1,0,0.1-0.1,0.1-0.1c0,0,0,0,0,0c0.1,0.1,0.1,0.1,0.1,0.2c0,0,0,0,0,0
		c0,0,0,0,0,0c-0.6,0.8-1.2,1.5-1.7,2.1C59,36.7,58.9,36.7,58.8,36.7z M45.4,35.9c-0.1,0-0.2-0.1-0.2-0.2c-0.2-1.1,0.1-2.1,0.9-3
		c0.1,0,0.1-0.1,0.2-0.1c0,0,0,0,0.1,0.1c0.1,0.2,0.1,0.2,0,0.3c-0.2,0.2-0.4,0.5-0.6,0.8l-0.3,1.1c0,0.4,0,0.6,0.1,0.9
		C45.6,35.8,45.5,35.9,45.4,35.9L45.4,35.9z M53.2,35.8c-0.1-0.1-0.1-0.1-0.1-0.1c-0.2-1.5-0.6-2.4-1.5-3.1
		c-0.1-0.1-0.1-0.2-0.1-0.2c0,0,0,0,0.1-0.1c0.1-0.1,0.1-0.1,0.2-0.1c0.9,0.9,1.4,2,1.6,3.4C53.3,35.6,53.3,35.7,53.2,35.8
		C53.2,35.7,53.2,35.8,53.2,35.8z M93.1,34.2c-0.2-0.3-0.4-0.5-0.6-0.6c0.3-0.2,0.5-0.5,0.6-0.8c0.2,0.3,0.4,0.5,0.7,0.7
		C93.4,33.6,93.2,33.9,93.1,34.2z M61.7,33.1c0,0-0.1,0-0.1-0.2c0-0.1,0-0.1,0-0.1c0.6-0.9,1.1-1.8,1.7-2.8c0,0,0.1,0,0.1-0.1
		c0.1,0,0.1,0,0.1,0c0,0.1,0.1,0.1,0.1,0.2c0,0.1,0,0.1,0,0.1c-0.6,1-1.2,2-1.7,2.8C61.8,33.1,61.8,33.1,61.7,33.1z M24.4,32.1
		c-0.4-0.9-1.1-1.4-1.6-1.7c0.8-0.4,1.3-1.4,1.6-2c0.3,0.8,1.1,1.4,1.7,1.7C25.1,30.5,24.6,31.5,24.4,32.1z M47.5,32.1
		C47.5,32.1,47.5,32.1,47.5,32.1c-0.1-0.1-0.1-0.2-0.1-0.2c0-0.1,0-0.1,0.1-0.1c0.7-0.3,1.4-0.4,2-0.4c0.4,0,0.7,0,1.1,0.1l0.1,0.1
		c0,0,0,0.1,0,0.1c0,0-0.1,0.1-0.1,0.1c-0.3-0.1-0.7-0.1-1-0.1C48.9,31.6,48.2,31.8,47.5,32.1C47.6,32.1,47.5,32.1,47.5,32.1
		L47.5,32.1z M67.7,26.5l1.6,0.9l-1.9,2.5L67.7,26.5z M64.4,28.6c0,0-0.1,0-0.1,0c-0.1,0-0.1-0.1-0.1-0.2c0.8-1.5,1.2-2.5,1.2-2.6
		c0,0,0.1,0,0.1-0.1c0,0,0,0,0,0l0.1,0.1c0,0,0,0.1,0,0.2c0,0-0.5,1.1-1.2,2.5C64.5,28.6,64.5,28.6,64.4,28.6z M67.8,24.4l6.8-7.4
		c0.1-0.1,0.1-0.2,0-0.2c0,0-0.1-0.1-0.1-0.1c0,0-0.1,0-0.1,0l-9,7.2l-5.2-2.3l17.9-8.6l-3.7,13.5L67.8,24.4z M85.7,24.2
		c-0.9,0-1.5-0.7-1.5-1.6c0-0.9,0.7-1.6,1.5-1.6c0.5,0,0.9,0.2,1.2,0.5c0.3,0.3,0.4,0.7,0.4,1.1C87.2,23.5,86.5,24.2,85.7,24.2z
		 M38,23.7c-0.2,0-0.4,0-0.5-0.1c-0.3-0.2-0.5-0.5-0.5-0.9c0-0.6,0.5-1.1,1-1.1c0.6,0,1.1,0.5,1.1,1.1c0,0.4-0.2,0.7-0.5,0.9
		C38.3,23.6,38.2,23.7,38,23.7z M38.8,13.3c-0.3-0.7-0.8-1.3-1.6-1.7c0.8-0.4,1.3-1.4,1.6-2c0.3,0.8,1.1,1.4,1.7,1.8
		C39.4,11.7,39,12.7,38.8,13.3z"/>
	<path d="M28.7,76.6c-0.8,0-1.4-0.7-1.4-1.5V60.7c0-0.4,0.1-0.9,0.2-1.3l5.2-15.6c0.2-0.5,0.6-0.9,1.1-0.9h28.7c0.5,0,1,0.3,1.1,0.8
		L69,59.4c0.1,0.4,0.2,0.8,0.2,1.3v14.4c0,0.8-0.6,1.5-1.4,1.5H28.7z M34.3,44.6c-0.1,0-0.1,0.1-0.2,0.1L29,60
		c-0.1,0.3-0.1,0.5-0.1,0.8v14.1c0,0.1,0.1,0.2,0.2,0.2h38.5c0.1,0,0.2-0.1,0.2-0.2V60.7c0-0.2,0-0.5-0.1-0.8l-5.1-15.3
		c0-0.1-0.1-0.1-0.2-0.1H34.3z"/>
	<path d="M48.3,67.1c-1.6,0-3.1-0.6-4.3-1.7c-1-1-1.8-2.2-2.1-3.6H28.7v-1.9h14l0.9-0.1l0,0.6c0.1,2.7,2.2,4.7,4.6,4.7
		c2.5,0,4.5-2.1,4.6-4.7l0-0.6l0.9,0.1h14v1.9H54.6c-0.3,1.4-1.1,2.7-2.1,3.6C51.4,66.5,49.8,67.1,48.3,67.1z"/>
	<path d="M48.3,66.9c-1.5,0-3-0.6-4.1-1.6c-1-0.9-1.7-2.2-2-3.6c0-0.1-0.1-0.1-0.2-0.1H28.9V60h13.8l0.8,0l0,0.5
		c0.1,2.8,2.3,4.9,4.8,4.9c2.6,0,4.7-2.2,4.8-4.9l0-0.5l0.8,0l13.8,0v1.6H54.6c-0.1,0-0.2,0.1-0.2,0.1c-0.3,1.4-1,2.6-2,3.6
		C51.3,66.3,49.8,66.9,48.3,66.9z"/>
</g>
</svg>
