<?xml version="1.0" encoding="utf-8"?>
<!-- Generator: Adobe Illustrator 22.1.0, SVG Export Plug-In . SVG Version: 6.00 Build 0)  -->
<svg version="1.1" id="图层_1" xmlns="http://www.w3.org/2000/svg" xmlns:xlink="http://www.w3.org/1999/xlink" x="0px" y="0px"
	 viewBox="0 0 100 100" style="enable-background:new 0 0 100 100;" xml:space="preserve">
<style type="text/css">
	.st0{fill:none;}
</style>
<title>wtz</title>
<rect x="-572.9" y="-360.4" class="st0" width="1245.8" height="820.7"/>
<path d="M50.5,67.9l28.3,11.5v-61c0-0.8-0.6-1.5-1.4-1.5c0,0,0,0,0,0H23.7c-0.8,0-1.5,0.7-1.5,1.5c0,0,0,0,0,0v61L50.5,67.9z
	 M17.8,18.4c0-3.2,2.6-5.8,5.8-5.8c0,0,0,0,0,0h53.7c3.2,0,5.8,2.6,5.8,5.8c0,0,0,0,0,0v61.7c0,3.2-2.4,4.9-5.4,3.7L50.5,72.6
	L23.2,83.7c-3,1.2-5.4-0.4-5.4-3.7L17.8,18.4L17.8,18.4z"/>
<path d="M45.2,46.4L40,41.2l7.3-1.1l3.3-6.6l3.3,6.6l7.3,1.1l-5.3,5.1l1.2,7.3l-6.5-3.4L44,53.6L45.2,46.4L45.2,46.4z M56.7,36.2
	 M44.4,36.2 M56.4,58.2c3,1.6,5.8-0.4,5.3-3.8l-1.1-6.5l4.7-4.6c2.4-2.4,1.4-5.7-2-6.2l-6.5-0.9l-2.9-5.9c-1.5-3.1-5-3.1-6.5,0
	l-2.9,5.9l-6.5,0.9c-3.4,0.5-4.5,3.8-2,6.2l4.7,4.6l-1.1,6.5c-0.6,3.4,2.2,5.4,5.3,3.8l5.8-3.1L56.4,58.2L56.4,58.2z"/>
</svg>
