<svg id="图层_1" data-name="图层 1" xmlns="http://www.w3.org/2000/svg" viewBox="0 0 50 50"><defs><style>.cls-1{fill:none;stroke:#ffffff;stroke-linecap:round;stroke-miterlimit:10;stroke-width:3px;}</style></defs><title>未标题-3</title><path class="cls-1" d="M13.09,9.94A18.5,18.5,0,1,1,6,24.5"/><circle cx="8.5" cy="16.5" r="2"/><circle cx="24.79" cy="32.32" r="2"/><path d="M26.24,28.15v.74H23.4v-.83a5.37,5.37,0,0,1,2.66-4.67q2.48-1.65,2.2-3.57a2.56,2.56,0,0,0-2.66-2.39,3.32,3.32,0,0,0-3.56,2,1.48,1.48,0,0,1-1.81.82h0a1.51,1.51,0,0,1-.9-2q1.64-3.71,6.46-3.55c3.41.19,5.28,1.93,5.58,5.23.07,2-1.09,3.85-3.48,5.49A2.91,2.91,0,0,0,26.24,28.15Z"/></svg>