<svg id="图层_1" data-name="图层 1" xmlns="http://www.w3.org/2000/svg" viewBox="0 0 50 50"><defs><style>.cls-1{fill:none;stroke:#ffffff;stroke-linecap:round;stroke-miterlimit:10;stroke-width:3px;}</style></defs><title>未标题-3</title><circle cx="22.33" cy="6" r="2"/><line class="cls-1" x1="33.24" y1="34.44" x2="33.24" y2="41.54"/><line class="cls-1" x1="38.09" y1="41.54" x2="33.36" y2="41.54"/><path class="cls-1" d="M28.17,44H12.1A3,3,0,0,1,9,41.06V8.94A3,3,0,0,1,12.1,6h2.44"/><path class="cls-1" d="M30.33,6H37.9A3,3,0,0,1,41,8.94V31.33"/><line class="cls-1" x1="20.16" y1="12.62" x2="24.99" y2="17.45"/><line class="cls-1" x1="29.67" y1="12.76" x2="25.09" y2="17.34"/><line class="cls-1" x1="20.14" y1="17.88" x2="29.86" y2="17.88"/><line class="cls-1" x1="19.33" y1="22.26" x2="30.67" y2="22.26"/><line class="cls-1" x1="25" y1="18.3" x2="25" y2="28.01"/><circle class="cls-1" cx="35.02" cy="37.99" r="9"/></svg>