<?xml version="1.0" encoding="utf-8"?>
<!-- Generator: Adobe Illustrator 22.1.0, SVG Export Plug-In . SVG Version: 6.00 Build 0)  -->
<svg version="1.1" id="图层_1" xmlns="http://www.w3.org/2000/svg" xmlns:xlink="http://www.w3.org/1999/xlink" x="0px" y="0px"
	 viewBox="0 0 44 44" style="enable-background:new 0 0 44 44;" xml:space="preserve">
<style type="text/css">
	.st0{fill:#FFFFFF;}
</style>
<title>sz</title>
<path class="st0" d="M27.8,17.2l-1,0.9c1.2,1,2.3,2.1,3.2,3.4l1-1C30.1,19.3,29,18.2,27.8,17.2z M25.7,18.8c0.8-1.6,1.2-3.3,1.2-5.1
	v-3.5h-1.4v3.5c0,1.4-0.3,2.9-0.9,4.2c-0.8,1.1-1.9,2-3.2,2.5l0.8,1.3C23.6,21,24.9,20.1,25.7,18.8z M20.7,3.5h-1.3v17.7h1.3V3.5z
	 M25.2,7.6h-3v9.5h1.4V9h5.3v8.1h1.4V7.6h-3.7c0.1-0.7,0.2-1.5,0.3-2.2H31V4h-9.5v1.4h3.9C25.4,6.2,25.3,6.9,25.2,7.6z M15.2,13.3
	V3.5h-1.4v9.8c0.1,2.4-0.2,4.9-0.9,7.2l1.1,1C14.7,19.8,15.1,17.1,15.2,13.3L15.2,13.3z M17.9,4.8h-1.3v14.6h1.3L17.9,4.8z
	 M23.2,28.8c1.9-1.3,3.7-2.7,5.4-4.3v-1.4H15.4v1.4h11.2c-1.5,1.3-3.2,2.5-4.9,3.5v2.8h-8.4v1.4h8.4v5.9c0.1,0.5-0.3,0.9-0.7,0.9
	c-0.1,0-0.2,0-0.3,0c-1.2,0-2.2,0-3.2-0.1l0.4,1.4h3.4c0.9,0.1,1.7-0.5,1.8-1.3c0-0.1,0-0.3,0-0.5v-6.4h7.6v-1.4h-7.6L23.2,28.8z"/>
</svg>
