<?xml version="1.0" encoding="utf-8"?>
<!-- Generator: Adobe Illustrator 22.0.0, SVG Export Plug-In . SVG Version: 6.00 Build 0)  -->
<svg version="1.1" id="图层_1" xmlns="http://www.w3.org/2000/svg" xmlns:xlink="http://www.w3.org/1999/xlink" x="0px" y="0px"
	 viewBox="0 0 200 200" style="enable-background:new 0 0 200 200;" xml:space="preserve">
<path d="M100,23c-42.6,0-77,34.4-77,77s34.4,77,77,77s77-34.4,77-77S142.6,23,100,23z M100,142.1c-3.6,0-6.2-3.1-6.2-6.2
	s3.1-6.2,6.2-6.2s6.2,3.1,6.2,6.2S103.6,142.1,100,142.1z M105.1,117.5c0,1.5-2.6,3.1-5.1,3.1s-5.1-1.5-5.1-3.1l-2.6-51.3
	c0-4.1,3.1-7.2,7.7-7.2s7.7,3.1,7.7,7.2L105.1,117.5z"/>
</svg>
