<?xml version="1.0" encoding="utf-8"?>
<!-- Generator: Adobe Illustrator 22.1.0, SVG Export Plug-In . SVG Version: 6.00 Build 0)  -->
<svg version="1.1" id="图层_1" xmlns="http://www.w3.org/2000/svg" xmlns:xlink="http://www.w3.org/1999/xlink" x="0px" y="0px"
	 viewBox="0 0 44 44" style="enable-background:new 0 0 44 44;" xml:space="preserve">
<style type="text/css">
	.st0{fill:#FFFFFF;}
</style>
<title>xd</title>
<path class="st0" d="M17.7,8.6l-1.4-0.6c-0.6,3.1-1.8,6-3.6,8.6l1.3,1.1C15.8,15,17.1,11.9,17.7,8.6z M18,21.3h3.1
	c1,0.1,1.9-0.6,2.1-1.6c0-0.2,0-0.3,0-0.5V3.4h-1.5v15.3c0.1,0.5-0.3,1-0.9,1.1c-0.1,0-0.2,0-0.3,0c-0.9,0-1.9,0-2.9-0.1L18,21.3z
	 M31.3,17c-1-3.2-2.3-6.3-3.6-9.4l-1.3,0.8c1.4,3.1,2.6,6.2,3.6,9.4L31.3,17z M19.3,25.3l1.2-0.6c-0.6-0.9-1.2-1.7-1.9-2.5l-1.2,0.6
	C18.1,23.5,18.7,24.4,19.3,25.3L19.3,25.3z M22.8,33.5H29v-8.2h-3.8c0.6-0.9,1.2-1.8,1.6-2.8L25.4,22c-0.5,1.1-1.1,2.2-1.7,3.3H15
	v8.2h6.3v1.9h-8.2v1.4h8.2v3.8h1.4v-3.8h8.2v-1.4h-8.2L22.8,33.5z M22.8,26.5h4.9v2.2h-4.9L22.8,26.5z M22.8,30h4.9v2.2h-4.9
	L22.8,30z M21.3,32.2h-4.9V30h4.9L21.3,32.2z M21.3,28.7h-4.9v-2.2h4.9L21.3,28.7z"/>
</svg>
