<?xml version="1.0" encoding="utf-8"?>
<!-- Generator: Adobe Illustrator 22.1.0, SVG Export Plug-In . SVG Version: 6.00 Build 0)  -->
<svg version="1.1" id="图层_1" xmlns="http://www.w3.org/2000/svg" xmlns:xlink="http://www.w3.org/1999/xlink" x="0px" y="0px"
	 viewBox="0 0 44 44" style="enable-background:new 0 0 44 44;" xml:space="preserve">
<style type="text/css">
	.st0{fill:#FFFFFF;}
</style>
<title>xs</title>
<path class="st0" d="M18,21.4h3.1c1,0.1,1.9-0.6,2.1-1.6c0-0.2,0-0.3,0-0.5V3.6h-1.5v15.3c0.1,0.5-0.3,1-0.9,1.1c-0.1,0-0.2,0-0.3,0
	c-0.9,0-1.9,0-2.9-0.1L18,21.4z M17.7,8.8l-1.4-0.6c-0.6,3.1-1.8,6-3.6,8.6l1.3,1.1C15.8,15.1,17.1,12,17.7,8.8L17.7,8.8z
	 M31.3,17.1c-1-3.2-2.3-6.3-3.6-9.4l-1.3,0.8c1.4,3.1,2.6,6.2,3.7,9.5L31.3,17.1z M30.1,24.7v-1.3h-8.2v1.4h0.7
	c0.2,3.2,1.1,6.2,2.6,9c-1.4,2-3,3.8-4.8,5.4l1,1.2c1.7-1.6,3.2-3.3,4.6-5.2c1.2,1.9,2.6,3.6,4.2,5.2l1-1.2
	c-1.6-1.6-3.1-3.4-4.3-5.4C28.6,31.1,29.7,28,30.1,24.7L30.1,24.7z M23.9,24.8h4.9c-0.4,2.7-1.4,5.3-2.7,7.7
	C24.8,30.1,24,27.5,23.9,24.8L23.9,24.8z M21.6,36.3c-0.8-1.3-1.6-2.6-2.5-3.9c0.9-2.5,1.5-5.2,1.6-7.9v-1.1h-7.2v1.4h5.8
	c-0.1,2.1-0.6,4.2-1.2,6.2c-1.1-1.5-2.2-2.9-3.5-4.4l-1,1c1.4,1.7,2.7,3.4,3.9,5c-1.1,2.4-2.6,4.5-4.6,6.2l1,1.1
	c1.9-1.7,3.4-3.7,4.5-5.9c0.8,1.2,1.5,2.3,2.1,3.4L21.6,36.3z"/>
</svg>
