<?xml version="1.0" encoding="utf-8"?>
<!-- Generator: Adobe Illustrator 22.1.0, SVG Export Plug-In . SVG Version: 6.00 Build 0)  -->
<svg version="1.1" id="图层_1" xmlns="http://www.w3.org/2000/svg" xmlns:xlink="http://www.w3.org/1999/xlink" x="0px" y="0px"
	 viewBox="0 0 44 44" style="enable-background:new 0 0 44 44;" xml:space="preserve">
<style type="text/css">
	.st0{fill:#FFFFFF;}
</style>
<title>zl</title>
<path class="st0" d="M13.4,11.5l0.6,1.3c2.1-0.5,3.9-1.6,5.3-3.2c0.5-0.8,1-1.7,1.3-2.6H25v3c-0.1,0.9,0.5,1.8,1.4,1.9
	c0.2,0,0.3,0,0.5,0h1.8c0.9,0.1,1.7-0.5,1.9-1.4c0.2-0.8,0.3-1.6,0.4-2.4l-1.4-0.4c0,0.6,0,1.3-0.1,1.9c-0.1,0.6-0.3,0.9-0.7,0.9
	h-1.6c-0.5,0-0.7-0.3-0.7-0.7V5.7H21c0.2-0.7,0.3-1.4,0.3-2.2l-1.4-0.2c-0.1,0.8-0.2,1.6-0.4,2.3h-5.3v1.4H19
	c-0.2,0.6-0.6,1.1-0.9,1.6C16.9,10.1,15.2,11.1,13.4,11.5z M29.6,21.3l1.1-1.1c-1.3-1.5-2.8-2.9-4.4-4.2l-1,0.9
	C26.9,18.2,28.3,19.7,29.6,21.3z M30.6,13.8h-7.7v-2.1h-1.5v2.1h-7.9v1.4h7.9v4.3c0.1,0.4-0.2,0.7-0.6,0.8c-0.1,0-0.1,0-0.2,0
	c-0.7,0-1.5,0-2.3-0.1l0.3,1.4h2.5c0.8,0.1,1.6-0.5,1.8-1.3c0-0.1,0-0.3,0-0.4v-4.7h7.7L30.6,13.8z M18.6,16.8l-1-0.9
	c-1.3,1.6-2.8,3-4.6,4.1l0.9,1.2C15.7,20,17.3,18.5,18.6,16.8L18.6,16.8z M13.2,39.5l1.2,1c2.6-2.4,4.5-5.3,5.6-8.6l-1.4-0.6
	C17.6,34.5,15.7,37.3,13.2,39.5z M24.2,31.9c2,2.8,3.7,5.7,5.3,8.7l1.3-0.9c-1.6-3-3.3-5.9-5.3-8.6L24.2,31.9z M13.2,27.8v1.4H31
	v-1.4L13.2,27.8z M19.2,23.6c1.5,1,2.8,2.2,4,3.5l1.1-1.1c-1.2-1.2-2.6-2.4-4-3.4L19.2,23.6z"/>
</svg>
